<svg
  width="100"
  height="100"
  viewBox="0 0 100 100"
  xmlns="http://www.w3.org/2000/svg"
>
  <circle cx="50" cy="50" r="50" fill="#61DAFB" />
  <path
    fill="#ffffff"
    d="M78.2,43.1c0.1-0.8,0.1-1.6,0.1-2.4c0-0.8,0-1.6-0.1-2.4c-0.2-2.3-1.2-4.4-2.6-6.1c-1.6-1.9-3.8-3-6.2-3.5 c-0.3-0.1-0.7-0.2-1-0.3c-0.8-0.1-1.7-0.1-2.5-0.1c-1.8,0-3.5,0.2-5.2,0.6c-1.2,0.3-2.3,0.7-3.4,1.2c-1.5,0.7-2.9,1.6-4.1,2.7 c-1.3-1.1-2.7-2-4.2-2.7c-1.1-0.5-2.2-0.9-3.4-1.2c-1.7-0.4-3.5-0.6-5.2-0.6c-0.8,0-1.7,0-2.5,0.1c-0.3,0-0.7,0.1-1,0.2 c-2.4,0.5-4.6,1.6-6.2,3.5c-1.5,1.7-2.5,3.8-2.6,6.1c-0.1,0.8-0.1,1.6-0.1,2.4c0,0.8,0,1.6,0.1,2.4c0.2,2.3,1.2,4.4,2.6,6.1 c1.6,1.9,3.8,3,6.2,3.5c0.3,0.1,0.7,0.2,1,0.3c0.8,0.1,1.7,0.1,2.5,0.1c1.8,0,3.5-0.2,5.2-0.6c1.2-0.3,2.3-0.7,3.4-1.2 c1.5-0.7,2.9-1.6,4.1-2.7c1.3,1.1,2.7,2,4.2,2.7c1.1,0.5,2.2,0.9,3.4,1.2c1.7,0.4,3.5,0.6,5.2,0.6c0.8,0,1.7,0,2.5-0.1 c0.3-0.1,0.7-0.1,1-0.2c2.4-0.5,4.6-1.6,6.2-3.5C77,47.5,78,45.4,78.2,43.1z M50,55.4c-2.9,0-5.4-2.4-5.4-5.4S47.1,44.6,50,44.6 S55.4,47,55.4,50S52.9,55.4,50,55.4z M61.6,24.5c1.5,0.3,2.9,0.8,4.2,1.5c1.3,0.6,2.4,1.4,3.4,2.3c0.8,0.8,1.6,1.8,2.1,2.9 c1.1,2.1,1.4,4.5,1.4,6.8c0,0.4,0,0.7,0,1.1c-0.2,0.4-0.5,0.7-0.8,1c-0.4,0.4-0.9,0.6-1.4,0.7c-1.2,0.2-2.4-0.1-3.5-0.4 c-1.3-0.4-2.5-1.1-3.6-1.9c-1-0.8-1.9-1.7-2.6-2.8c-0.4-0.6-0.7-1.2-0.9-1.9c-0.2-0.5-0.3-1-0.3-1.5c0-1.4,0.2-2.8,0.7-4.1 c0.1-0.4,0.3-0.9,0.6-1.3C60.8,25,61.2,24.7,61.6,24.5z M44.5,24.5c0.4,0.2,0.8,0.5,1.1,0.8c0.3,0.4,0.5,0.8,0.6,1.3 c0.4,1.3,0.7,2.7,0.7,4.1c0,0.5-0.1,1-0.3,1.5c-0.2,0.7-0.5,1.3-0.9,1.9c-0.7,1.1-1.6,2.1-2.6,2.8c-1.1,0.8-2.3,1.4-3.6,1.9 c-1.1,0.3-2.3,0.6-3.5,0.4c-0.5-0.1-1-0.3-1.4-0.7c-0.4-0.3-0.6-0.6-0.8-1c0-0.4,0-0.7,0-1.1c0-2.3,0.3-4.7,1.4-6.8 c0.5-1.1,1.2-2.1,2.1-2.9c1-0.9,2.1-1.7,3.4-2.3C41.6,25.3,43,24.8,44.5,24.5z M50,33.6c1.2,0,2.4,0.2,3.5,0.6 c1.1,0.4,2.2,1,3.1,1.7c0.9,0.7,1.7,1.6,2.3,2.6c0.6,1.1,1,2.3,1.1,3.6c0.1,1.3-0.2,2.6-0.8,3.8c-0.6,1.2-1.4,2.2-2.5,3.1 c-1.1,0.9-2.3,1.5-3.6,1.9c-1.3,0.4-2.6,0.5-3.9,0.4c-1.3-0.1-2.5-0.4-3.6-1c-1.1-0.6-2.1-1.4-2.9-2.4c-0.8-1-1.4-2.2-1.7-3.5 c-0.3-1.3-0.3-2.7,0-4c0.3-1.3,0.9-2.5,1.7-3.6c0.8-1.1,1.9-2,3.1-2.6C47.6,33.8,48.8,33.6,50,33.6z"
  />
</svg>